<?xml version="1.0" standalone="no"?><!DOCTYPE svg PUBLIC "-//W3C//DTD SVG 1.1//EN" "http://www.w3.org/Graphics/SVG/1.1/DTD/svg11.dtd"><svg t="1756047280968" class="icon" viewBox="0 0 1024 1024" version="1.1" xmlns="http://www.w3.org/2000/svg" p-id="8830" xmlns:xlink="http://www.w3.org/1999/xlink" width="200" height="200"><path d="M184.32 174.08h655.36l-55.94112 773.90848a81.92 81.92 0 0 1-81.7152 76.01152H321.97632a81.92 81.92 0 0 1-81.7152-76.01152L184.32 174.08z" fill="#36CFC9" p-id="8831"></path><path d="M821.0432 399.36l-26.65472 368.64H224.90112l-26.64448-368.64H821.0432z" fill="#B5F5EC" p-id="8832"></path><path d="M512 583.68m-133.12 0a133.12 133.12 0 1 0 266.24 0 133.12 133.12 0 1 0-266.24 0Z" fill="#08979C" p-id="8833"></path><path d="M174.08 81.92h665.6a40.96 40.96 0 0 1 40.96 40.96v51.2a40.96 40.96 0 0 1-40.96 40.96H174.08a40.96 40.96 0 0 1-40.96-40.96v-51.2a40.96 40.96 0 0 1 40.96-40.96zM386.49856 10.24h251.00288a40.96 40.96 0 0 1 40.0384 32.27648L686.08 81.92H337.92l8.5504-39.40352A40.96 40.96 0 0 1 386.49856 10.24z" fill="#08979C" p-id="8834"></path></svg>